<svg width="361" height="80" viewBox="0 0 361 80" fill="none" xmlns="http://www.w3.org/2000/svg">
<path d="M20.5195 80H4.36373C2.65252 80 1.73159 77.9907 2.84869 76.6944L64.8961 4.69438C65.2761 4.25351 65.8292 4 66.4112 4H80.3964C81.5009 4 82.3964 4.89543 82.3964 6V60.0189C82.3964 61.1235 81.5009 62.0189 80.3964 62.0189H66.2873C65.1827 62.0189 64.2873 61.1235 64.2873 60.0189V36.1883C64.2873 34.3399 61.9947 33.4808 60.7799 34.8739L22.0269 79.3145C21.6471 79.75 21.0974 80 20.5195 80Z" fill="#F1F7F3"/>
<path d="M58.9046 59.4241V64.5242C58.9046 65.6288 59.8001 66.5242 60.9046 66.5242H112.498C112.617 66.5242 112.725 66.5158 112.841 66.4919C114.755 66.0998 132.752 61.9694 133.936 45.1217C133.936 45.1217 136.687 31.8954 125.933 23.9596C121.239 19.8352 113.568 16.1993 103.864 17.2404C102.887 17.3452 102.173 18.1894 102.173 19.1718V60.4361C102.173 61.5407 101.277 62.4361 100.173 62.4361H88.6662C87.5617 62.4361 86.6662 61.5407 86.6662 60.4361V6C86.6662 4.89543 87.5617 4 88.6662 4H115.928C115.928 4 127.933 4.96191 138.938 16.0239C138.938 16.0239 148.442 24.9216 149.192 38.1478C149.192 38.1478 150.943 48.4884 144.19 61.4742C144.19 61.4742 140.189 69.1695 126.433 76.6243C127.175 76.0824 119.093 80.218 114.928 79.991C111.354 79.7962 58.3009 79.9357 43.3132 79.9792C41.6736 79.984 40.7623 78.1221 41.7298 76.7983L55.2899 58.244C56.4314 56.6821 58.9046 57.4895 58.9046 59.4241Z" fill="black" fill-opacity="0.75"/>
<path d="M169.272 35.648C167.144 35.648 165.548 35.0907 164.484 33.976C163.42 32.8613 162.989 31.202 163.192 28.998L163.61 24.248C163.686 23.412 163.597 22.8167 163.344 22.462C163.091 22.082 162.609 21.892 161.9 21.892H160.836V18.168H161.9C162.609 18.168 163.091 17.978 163.344 17.598C163.597 17.218 163.686 16.6227 163.61 15.812L163.192 11.176C162.989 8.99733 163.42 7.35067 164.484 6.236C165.548 5.096 167.144 4.526 169.272 4.526H171.476V8.288H169.842C168.778 8.288 168.069 8.516 167.714 8.972C167.359 9.428 167.22 10.1373 167.296 11.1L167.638 15.09C167.739 16.154 167.689 17.0533 167.486 17.788C167.309 18.5227 166.903 19.1307 166.27 19.612C165.662 20.0933 164.775 20.486 163.61 20.79V19.346C164.775 19.5993 165.662 19.9667 166.27 20.448C166.903 20.904 167.309 21.4993 167.486 22.234C167.689 22.9687 167.739 23.868 167.638 24.932L167.296 29.036C167.245 30.024 167.385 30.746 167.714 31.202C168.069 31.6327 168.778 31.848 169.842 31.848H171.476V35.648H169.272ZM173.451 32L184.205 5.286H188.423L199.139 32H193.629L185.345 10.074H187.245L178.847 32H173.451ZM179.151 27.022V22.69H193.515V27.022H179.151ZM204.883 32L198.005 13.646H203.021L207.505 26.984L205.985 27.022L210.583 13.646H214.193L218.791 27.022L217.271 26.984L221.755 13.646H226.771L219.931 32H216.321L211.685 19.308H213.091L208.455 32H204.883ZM236.454 32.38C234.782 32.38 233.275 31.962 231.932 31.126C230.59 30.29 229.538 29.15 228.778 27.706C228.018 26.262 227.638 24.6407 227.638 22.842C227.638 21.018 228.018 19.384 228.778 17.94C229.538 16.496 230.59 15.356 231.932 14.52C233.275 13.684 234.782 13.266 236.454 13.266C237.772 13.266 238.95 13.532 239.988 14.064C241.027 14.596 241.85 15.3433 242.458 16.306C243.092 17.2433 243.434 18.3073 243.484 19.498V26.11C243.434 27.326 243.092 28.4027 242.458 29.34C241.85 30.2773 241.027 31.0247 239.988 31.582C238.95 32.114 237.772 32.38 236.454 32.38ZM237.366 27.782C238.76 27.782 239.887 27.326 240.748 26.414C241.61 25.4767 242.04 24.2733 242.04 22.804C242.04 21.8413 241.838 20.9927 241.432 20.258C241.052 19.498 240.508 18.9153 239.798 18.51C239.114 18.0793 238.304 17.864 237.366 17.864C236.454 17.864 235.644 18.0793 234.934 18.51C234.25 18.9153 233.706 19.498 233.3 20.258C232.92 20.9927 232.73 21.8413 232.73 22.804C232.73 23.792 232.92 24.666 233.3 25.426C233.706 26.1607 234.25 26.7433 234.934 27.174C235.644 27.5793 236.454 27.782 237.366 27.782ZM241.774 32V27.06L242.572 22.576L241.774 18.168V13.646H246.714V32H241.774ZM263.468 32V21.474C263.468 20.3847 263.126 19.498 262.442 18.814C261.758 18.13 260.871 17.788 259.782 17.788C259.073 17.788 258.439 17.94 257.882 18.244C257.325 18.548 256.881 18.9787 256.552 19.536C256.248 20.0933 256.096 20.7393 256.096 21.474L254.158 20.486C254.158 19.042 254.462 17.788 255.07 16.724C255.703 15.6347 256.565 14.786 257.654 14.178C258.769 13.57 260.023 13.266 261.416 13.266C262.759 13.266 263.962 13.608 265.026 14.292C266.09 14.9507 266.926 15.8247 267.534 16.914C268.142 17.978 268.446 19.1307 268.446 20.372V32H263.468ZM251.118 32V13.646H256.096V32H251.118Z" fill="#F1F7F3"/>
<path d="M166.27 67V62.402H173.072C174.795 62.402 176.302 62.0473 177.594 61.338C178.886 60.6033 179.887 59.5773 180.596 58.26C181.331 56.9427 181.698 55.3847 181.698 53.586C181.698 51.838 181.331 50.318 180.596 49.026C179.861 47.7087 178.848 46.6953 177.556 45.986C176.264 45.2513 174.769 44.884 173.072 44.884H166.156V40.286H173.148C175.124 40.286 176.948 40.6153 178.62 41.274C180.317 41.9327 181.787 42.87 183.028 44.086C184.295 45.2767 185.27 46.6827 185.954 48.304C186.663 49.9253 187.018 51.6987 187.018 53.624C187.018 55.5493 186.663 57.3353 185.954 58.982C185.27 60.6033 184.307 62.022 183.066 63.238C181.825 64.4287 180.355 65.3533 178.658 66.012C176.986 66.6707 175.175 67 173.224 67H166.27ZM162.736 67V40.286H167.904V67H162.736ZM199.371 67.38C197.445 67.38 195.735 66.9747 194.241 66.164C192.746 65.328 191.555 64.188 190.669 62.744C189.807 61.3 189.377 59.6533 189.377 57.804C189.377 55.98 189.795 54.3587 190.631 52.94C191.492 51.496 192.657 50.356 194.127 49.52C195.596 48.6587 197.23 48.228 199.029 48.228C200.802 48.228 202.36 48.6333 203.703 49.444C205.071 50.2293 206.135 51.3187 206.895 52.712C207.68 54.08 208.073 55.638 208.073 57.386C208.073 57.7153 208.047 58.0573 207.997 58.412C207.971 58.7413 207.908 59.1213 207.807 59.552L192.379 59.59V55.866L205.489 55.828L203.475 57.386C203.424 56.2967 203.221 55.3847 202.867 54.65C202.537 53.9153 202.043 53.358 201.385 52.978C200.751 52.5727 199.966 52.37 199.029 52.37C198.041 52.37 197.179 52.598 196.445 53.054C195.71 53.4847 195.14 54.1053 194.735 54.916C194.355 55.7013 194.165 56.6387 194.165 57.728C194.165 58.8427 194.367 59.818 194.773 60.654C195.203 61.4647 195.811 62.098 196.597 62.554C197.382 62.9847 198.294 63.2 199.333 63.2C200.27 63.2 201.119 63.048 201.879 62.744C202.639 62.4147 203.297 61.9333 203.855 61.3L206.781 64.226C205.894 65.2647 204.805 66.05 203.513 66.582C202.246 67.114 200.865 67.38 199.371 67.38ZM216.82 67L208.726 48.646H214.198L220.012 63.77H217.314L223.166 48.646H228.448L220.392 67H216.82ZM230.745 67V39.526H235.723V67H230.745ZM248.76 67.38C246.91 67.38 245.238 66.962 243.744 66.126C242.274 65.2647 241.096 64.112 240.21 62.668C239.348 61.1987 238.918 59.5647 238.918 57.766C238.918 55.9673 239.348 54.3587 240.21 52.94C241.071 51.496 242.249 50.356 243.744 49.52C245.238 48.6587 246.898 48.228 248.722 48.228C250.596 48.228 252.268 48.6587 253.738 49.52C255.232 50.356 256.41 51.496 257.272 52.94C258.133 54.3587 258.564 55.9673 258.564 57.766C258.564 59.5647 258.133 61.1987 257.272 62.668C256.41 64.112 255.232 65.2647 253.738 66.126C252.268 66.962 250.609 67.38 248.76 67.38ZM248.722 62.744C249.659 62.744 250.482 62.5413 251.192 62.136C251.926 61.7053 252.484 61.1227 252.864 60.388C253.269 59.628 253.472 58.7667 253.472 57.804C253.472 56.8413 253.269 55.9927 252.864 55.258C252.458 54.5233 251.901 53.9533 251.192 53.548C250.482 53.1173 249.659 52.902 248.722 52.902C247.81 52.902 246.999 53.1173 246.29 53.548C245.58 53.9533 245.023 54.5233 244.618 55.258C244.212 55.9927 244.01 56.8413 244.01 57.804C244.01 58.7667 244.212 59.628 244.618 60.388C245.023 61.1227 245.58 61.7053 246.29 62.136C246.999 62.5413 247.81 62.744 248.722 62.744ZM271.952 67.38C270.635 67.38 269.444 67.114 268.38 66.582C267.316 66.0247 266.468 65.2773 265.834 64.34C265.201 63.4027 264.859 62.326 264.808 61.11V54.612C264.859 53.396 265.201 52.3193 265.834 51.382C266.493 50.4193 267.342 49.6593 268.38 49.102C269.444 48.5447 270.635 48.266 271.952 48.266C273.65 48.266 275.17 48.684 276.512 49.52C277.855 50.356 278.906 51.496 279.666 52.94C280.452 54.384 280.844 56.018 280.844 57.842C280.844 59.6407 280.452 61.262 279.666 62.706C278.906 64.15 277.855 65.29 276.512 66.126C275.17 66.962 273.65 67.38 271.952 67.38ZM261.768 74.676V48.646H266.746V53.472L265.91 57.918L266.708 62.364V74.676H261.768ZM271.078 62.782C271.99 62.782 272.801 62.5793 273.51 62.174C274.22 61.7433 274.764 61.1607 275.144 60.426C275.55 59.666 275.752 58.792 275.752 57.804C275.752 56.8413 275.55 55.9927 275.144 55.258C274.764 54.498 274.22 53.9153 273.51 53.51C272.801 53.0793 271.99 52.864 271.078 52.864C270.192 52.864 269.394 53.0793 268.684 53.51C267.975 53.9153 267.418 54.498 267.012 55.258C266.632 55.9927 266.442 56.8413 266.442 57.804C266.442 58.792 266.632 59.666 267.012 60.426C267.418 61.1607 267.962 61.7433 268.646 62.174C269.356 62.5793 270.166 62.782 271.078 62.782ZM292.886 67.38C290.961 67.38 289.251 66.9747 287.756 66.164C286.262 65.328 285.071 64.188 284.184 62.744C283.323 61.3 282.892 59.6533 282.892 57.804C282.892 55.98 283.31 54.3587 284.146 52.94C285.008 51.496 286.173 50.356 287.642 49.52C289.112 48.6587 290.746 48.228 292.544 48.228C294.318 48.228 295.876 48.6333 297.218 49.444C298.586 50.2293 299.65 51.3187 300.41 52.712C301.196 54.08 301.588 55.638 301.588 57.386C301.588 57.7153 301.563 58.0573 301.512 58.412C301.487 58.7413 301.424 59.1213 301.322 59.552L285.894 59.59V55.866L299.004 55.828L296.99 57.386C296.94 56.2967 296.737 55.3847 296.382 54.65C296.053 53.9153 295.559 53.358 294.9 52.978C294.267 52.5727 293.482 52.37 292.544 52.37C291.556 52.37 290.695 52.598 289.96 53.054C289.226 53.4847 288.656 54.1053 288.25 54.916C287.87 55.7013 287.68 56.6387 287.68 57.728C287.68 58.8427 287.883 59.818 288.288 60.654C288.719 61.4647 289.327 62.098 290.112 62.554C290.898 62.9847 291.81 63.2 292.848 63.2C293.786 63.2 294.634 63.048 295.394 62.744C296.154 62.4147 296.813 61.9333 297.37 61.3L300.296 64.226C299.41 65.2647 298.32 66.05 297.028 66.582C295.762 67.114 294.381 67.38 292.886 67.38ZM304.667 67V48.646H309.645V67H304.667ZM309.645 56.854L307.707 55.562C307.935 53.3073 308.594 51.534 309.683 50.242C310.772 48.9247 312.343 48.266 314.395 48.266C315.282 48.266 316.08 48.418 316.789 48.722C317.498 49.0007 318.144 49.4693 318.727 50.128L315.611 53.7C315.332 53.396 314.99 53.168 314.585 53.016C314.205 52.864 313.762 52.788 313.255 52.788C312.191 52.788 311.317 53.13 310.633 53.814C309.974 54.4727 309.645 55.486 309.645 56.854ZM322.283 70.648H320.041V66.848H321.675C322.739 66.848 323.449 66.6327 323.803 66.202C324.158 65.746 324.297 65.024 324.221 64.036L323.879 59.932C323.803 58.868 323.854 57.9687 324.031 57.234C324.234 56.4993 324.639 55.904 325.247 55.448C325.855 54.9667 326.742 54.5993 327.907 54.346V55.79C326.742 55.486 325.855 55.0933 325.247 54.612C324.639 54.1307 324.234 53.5227 324.031 52.788C323.854 52.0533 323.803 51.154 323.879 50.09L324.221 46.1C324.323 45.1373 324.183 44.428 323.803 43.972C323.449 43.516 322.739 43.288 321.675 43.288H320.041V39.526H322.283C324.411 39.526 326.007 40.096 327.071 41.236C328.135 42.3507 328.566 43.9973 328.363 46.176L327.907 50.812C327.831 51.6227 327.92 52.218 328.173 52.598C328.452 52.978 328.946 53.168 329.655 53.168H330.719V56.892H329.655C328.946 56.892 328.452 57.082 328.173 57.462C327.92 57.8167 327.831 58.412 327.907 59.248L328.325 63.998C328.528 66.202 328.097 67.8613 327.033 68.976C325.995 70.0907 324.411 70.648 322.283 70.648Z" fill="black" fill-opacity="0.75"/>
</svg>
